<svg width="5" height="9" viewBox="0 0 5 9" fill="none" xmlns="http://www.w3.org/2000/svg">
<path d="M3.20312 0.527344C3.16406 1.25781 3.13672 2.00977 3.12109 2.7832C3.10547 3.55664 3.09766 4.58984 3.09766 5.88281C3.09766 6.03125 3.09375 6.22656 3.08594 6.46875C3.08203 6.71094 3.08008 6.87891 3.08008 6.97266C3.08008 7.66797 3.14844 8.11328 3.28516 8.30859C3.42578 8.50391 3.68945 8.60156 4.07617 8.60156C4.09961 8.60156 4.13867 8.59961 4.19336 8.5957C4.24805 8.5918 4.28906 8.58984 4.31641 8.58984V9C3.96484 8.98438 3.63281 8.97266 3.32031 8.96484C3.01172 8.95703 2.73242 8.95312 2.48242 8.95312C2.2793 8.95312 2.02734 8.95703 1.72656 8.96484C1.42969 8.97266 1.10156 8.98438 0.742188 9V8.60156H0.923828C1.33789 8.60156 1.61719 8.56055 1.76172 8.47852C1.90625 8.39648 2.00586 8.23438 2.06055 7.99219C2.0957 7.84375 2.125 7.33203 2.14844 6.45703C2.17188 5.58203 2.18359 4.49023 2.18359 3.18164C2.18359 2.97852 2.17773 2.67188 2.16602 2.26172C2.1582 1.84766 2.15234 1.55469 2.14844 1.38281C1.92188 1.38672 1.68164 1.40039 1.42773 1.42383C1.17383 1.44336 0.902344 1.47266 0.613281 1.51172L0.537109 1.06641C0.962891 0.996094 1.39844 0.916016 1.84375 0.826172C2.28906 0.736328 2.74219 0.636719 3.20312 0.527344Z" fill="#DC0109"/>
</svg>
