<svg width="7" height="9" viewBox="0 0 7 9" fill="none" xmlns="http://www.w3.org/2000/svg">
<path d="M1.94727 7.99219C2.12305 7.99609 2.35742 8 2.65039 8.00391C3.15039 8.01172 3.47656 8.01562 3.62891 8.01562H4.36133C4.93164 8.01562 5.30664 7.95703 5.48633 7.83984C5.66992 7.71875 5.80273 7.48633 5.88477 7.14258L6.25391 7.25977C6.14062 7.56836 6.04688 7.86523 5.97266 8.15039C5.89844 8.43555 5.83984 8.71875 5.79688 9C5.16406 8.98047 4.61719 8.9668 4.15625 8.95898C3.69922 8.94727 3.28711 8.94141 2.91992 8.94141C2.60352 8.94141 2.26172 8.94727 1.89453 8.95898C1.52734 8.9668 1.10547 8.98047 0.628906 9L0.447266 8.60156C1.68164 7.54688 2.64844 6.52344 3.34766 5.53125C4.04688 4.53906 4.39648 3.70312 4.39648 3.02344C4.39648 2.53125 4.25 2.12305 3.95703 1.79883C3.66797 1.4707 3.30273 1.30664 2.86133 1.30664C2.5293 1.30664 2.22266 1.4043 1.94141 1.59961C1.66406 1.79102 1.38672 2.09766 1.10938 2.51953L0.652344 2.25586C0.980469 1.67383 1.34961 1.24023 1.75977 0.955078C2.17383 0.669922 2.63672 0.527344 3.14844 0.527344C3.8125 0.527344 4.38086 0.757812 4.85352 1.21875C5.32617 1.67578 5.5625 2.22461 5.5625 2.86523C5.5625 3.46289 5.30469 4.13477 4.78906 4.88086C4.27734 5.62305 3.33008 6.66016 1.94727 7.99219Z" fill="#DC0109"/>
</svg>
