<svg width="6" height="10" viewBox="0 0 6 10" fill="none" xmlns="http://www.w3.org/2000/svg">
<path d="M3.5 4.35352C3.53125 4.34961 3.56641 4.34766 3.60547 4.34766C3.64453 4.34375 3.69922 4.3418 3.76953 4.3418C4.41016 4.3418 4.91406 4.52539 5.28125 4.89258C5.65234 5.25586 5.83789 5.75391 5.83789 6.38672C5.83789 7.13281 5.51953 7.7832 4.88281 8.33789C4.25 8.89258 3.50781 9.16992 2.65625 9.16992C2.125 9.16992 1.66406 9.06641 1.27344 8.85938C0.882812 8.64844 0.6875 8.4082 0.6875 8.13867C0.6875 8.02148 0.740234 7.9082 0.845703 7.79883C0.955078 7.68945 1.06641 7.63477 1.17969 7.63477C1.32422 7.63477 1.48438 7.72852 1.66016 7.91602C1.70703 7.9668 1.74219 8.00391 1.76562 8.02734C1.94531 8.21875 2.12695 8.35742 2.31055 8.44336C2.49805 8.52539 2.70898 8.56641 2.94336 8.56641C3.43945 8.56641 3.85742 8.38477 4.19727 8.02148C4.53711 7.6543 4.70703 7.19727 4.70703 6.65039C4.70703 6.13867 4.5625 5.72266 4.27344 5.40234C3.98438 5.08203 3.60938 4.92188 3.14844 4.92188C2.98438 4.92188 2.80859 4.94336 2.62109 4.98633C2.4375 5.02539 2.24023 5.08789 2.0293 5.17383L1.86523 4.76367C2.64258 4.42383 3.22656 4.06641 3.61719 3.69141C4.00781 3.3125 4.20312 2.91797 4.20312 2.50781C4.20312 2.14453 4.08203 1.8418 3.83984 1.59961C3.59766 1.35742 3.29102 1.23633 2.91992 1.23633C2.64258 1.23633 2.375 1.31836 2.11719 1.48242C1.86328 1.64648 1.61133 1.89648 1.36133 2.23242L0.927734 1.98047C1.19727 1.5 1.52148 1.13867 1.90039 0.896484C2.2793 0.650391 2.71094 0.527344 3.19531 0.527344C3.78516 0.527344 4.27734 0.705078 4.67188 1.06055C5.07031 1.41211 5.26953 1.8418 5.26953 2.34961C5.26953 2.7832 5.12305 3.16602 4.83008 3.49805C4.53711 3.83008 4.09375 4.11523 3.5 4.35352Z" fill="#DC0109"/>
</svg>
