<?xml version="1.0" encoding="UTF-8" standalone="no"?>
<!-- Created with Inkscape (http://www.inkscape.org/) -->

<svg
   version="1.1"
   id="svg1"
   width="1574.0249"
   height="1097"
   viewBox="0 0 1574.0249 1097"
   xmlns="http://www.w3.org/2000/svg"
   xmlns:svg="http://www.w3.org/2000/svg">
  <defs
     id="defs1" />
  <g
     id="g1"
     transform="translate(-213,-452)">
    <path
       style="fill:#dc0009;fill-opacity:1"
       d="M 972,1443.5 V 1338 h 36.5 36.5 V 1443.5 1549 H 1008.5 972 Z m -261,72.5 -3.5,-1.9162 -1.2609,-0.042 -1.2609,-0.042 -4.2391,-1.8496 -4.2391,-1.8496 -5.51933,-2.1504 -5.51932,-2.1504 h -1.13618 -1.13617 l -3.8445,-1.8585 -3.8445,-1.8585 -3.5,-1.2344 -3.5,-1.2344 -5,-2.003 -5,-2.003 -4.80913,-1.4966 -4.80912,-1.4967 0.67956,-3.1575 0.67957,-3.1574 1.34304,-2.6297 1.34305,-2.6298 1.43943,-3.8702 1.43943,-3.8703 2.62329,-7 2.62329,-7 1.57165,-4.5 1.57164,-4.5 0.90215,-0.95 L 666,1448.6 v -1.7732 -1.7733 l 1.93559,-4.2767 1.9356,-4.2768 2.21372,-6 2.21372,-6 1.45545,-3.3719 1.45546,-3.3719 0.84518,-2.6281 0.84517,-2.6281 2.45504,-6.5 2.45504,-6.5 2.1998,-5.5 2.1998,-5.5 1.4399,-4 1.43991,-4 1.45531,-3.1511 1.45531,-3.1512 v -1.1097 -1.1098 l 1.84961,-4.2391 1.84961,-4.2391 2.2148,-6 2.21479,-6 1.9356,-4.2768 1.93559,-4.2767 v -1.4428 -1.4429 l 2,-3.5608 2,-3.5608 v -1.2003 -1.2002 l 2.14931,-5.5194 2.14932,-5.5193 1.274,-3 1.27401,-3 1.6762,-4.5 1.6762,-4.5 1.14517,-3.25 1.14517,-3.25 h 1.30497 1.30497 l 2.83007,1.4635 2.83006,1.4635 3.87028,1.4394 3.87027,1.4394 7,2.6472 7,2.6471 2.62808,0.8452 2.62808,0.8452 3.37192,1.4402 3.37192,1.4402 3.5,1.2574 3.5,1.2575 5,2.0011 5,2.0012 3.94838,1.2511 3.94838,1.2511 0.36925,1.1077 0.36925,1.1078 -2.06763,4.6742 -2.06763,4.6742 v 0.9212 0.9212 l -2,4.1395 -2,4.1396 v 1.2854 1.2854 l -1.93559,4.2767 -1.9356,4.2768 -2.21479,6 -2.2148,6 -1.84961,4.2391 -1.84961,4.2391 v 1.1098 1.1097 l -1.45531,3.1512 -1.45531,3.1511 -1.43991,4 -1.4399,4 -2.20957,5.5 -2.20957,5.5 -1.4399,4 -1.43991,4 -1.45531,3.1511 -1.45531,3.1512 v 1.1097 1.1098 l -1.84961,4.2391 -1.84961,4.2391 -2.2148,6 -2.21479,6 -1.9356,4.2768 -1.93559,4.2767 v 1.4428 1.4429 l -2,3.5608 -2,3.5608 v 1.2003 1.2002 l -2.14931,5.5194 -2.14932,5.5193 -1.274,3 -1.27401,3 -1.57668,4.25 L 728,1487 l -1.52707,4.25 -1.52707,4.25 -0.94586,2 -0.94586,2 -1.63632,4.5 -1.63632,4.5 -1.59459,4.75 -1.5946,4.75 -1.04615,-0.042 -1.04616,-0.042 z m 587.6947,-2.7326 -1.6203,-4.7674 -2.4422,-6.5 -2.4422,-6.5 -2.1998,-5.5 -2.1998,-5.5 -1.4223,-4 -1.4222,-4 -0.9459,-2 -0.9459,-2 -1.6206,-4.5 -1.6206,-4.5 -1.8363,-5 -1.8363,-5 -1.9773,-5 -1.9772,-5 -1.2344,-3.5 -1.2344,-3.5 -1.8585,-3.8445 -1.8585,-3.8445 v -1.1362 -1.1361 l -2.1493,-5.5194 -2.1493,-5.5193 -1.274,-3 -1.274,-3 -1.5767,-4.25 -1.5767,-4.25 -1.5271,-4.25 -1.527,-4.25 -0.9459,-2 -0.9459,-2 -1.527,-4.25 -1.5271,-4.25 -1.5271,-4.25 -1.527,-4.25 -0.9459,-2 -0.9459,-2 -1.4409,-4 -1.4409,-4 -1.6628,-4.5 -1.6629,-4.5 -1.274,-3 -1.274,-3 -2.1493,-5.5193 -2.1493,-5.5194 v -1.2002 -1.2003 l -2.0669,-3.68 -2.067,-3.68 1.317,-0.8351 1.3169,-0.8351 1.2609,-0.015 1.2609,-0.015 4.2391,-1.8344 4.2391,-1.8344 3.25,-1.1656 3.25,-1.1656 3.25,-1.1645 3.25,-1.1646 3,-1.2588 3,-1.2587 4,-1.4906 4,-1.4905 4.5,-1.6309 4.5,-1.6308 3.1511,-1.4553 3.1512,-1.4553 h 1.1387 1.1387 l 4.0571,-2.0698 4.0571,-2.0698 1.1531,0.465 1.153,0.465 1.8161,4.8548 1.8161,4.8548 1.9339,4.2768 1.9339,4.2767 v 1.4428 1.4429 l 2,3.5608 2,3.5608 v 1.2003 1.2002 l 2.1493,5.5194 2.1493,5.5193 1.274,3 1.274,3 1.4906,4 1.4905,4 1.6132,4.5 1.6132,4.5 0.9459,2 0.9459,2 1.527,4.25 1.5271,4.25 1.5271,4.25 1.527,4.25 0.9459,2 0.9459,2 1.6132,4.5 1.6132,4.5 1.4905,4 1.4906,4 1.2587,3 1.2588,3 1.2589,3.5 1.2589,3.5 1.0702,3 1.0702,3 1.2588,3 1.2587,3 1.4719,4 1.4719,4 2.1749,5.5 2.175,5.5 1.8363,5 1.8363,5 1.6206,4.5 1.6206,4.5 0.9459,2 0.9459,2 1.4222,4 1.4223,4 2.1048,5.4859 2.1048,5.4859 v 0.7255 0.7256 l -3.9168,1.0547 -3.9168,1.0547 -2.8332,1.4777 -2.8332,1.4777 -1.2609,0.01 -1.2609,0.01 -4.2391,1.8496 -4.2391,1.8496 -6,2.2148 -6,2.2148 -4.2768,1.9356 -4.2767,1.9356 h -1.2854 -1.2854 l -4.1396,2 -4.1395,2 h -1.098 -1.0979 l -2.7004,1.3733 -2.7003,1.3733 -2.0925,0.6441 -2.0925,0.6441 z M 381.81784,1366.562 379.60147,1362 H 378.80073 378 v -1.9167 -1.9166 l -0.81596,-0.3334 -0.81597,-0.3333 -4.23175,-7.5 -4.23175,-7.5 -1.81061,-3 -1.8106,-3 -2.30504,-4 -2.30504,-4 -1.50831,-3 -1.5083,-3 -0.68166,-0.5 -0.68166,-0.5 -3.10011,-5.9208 -3.1001,-5.9209 0.52128,-0.8434 0.52128,-0.8435 3.68215,-2.023 3.68215,-2.0231 3.72326,-2.2126 3.72325,-2.2127 6.27675,-3.3685 6.27674,-3.3684 1.5,-1.1882 1.5,-1.1882 2.5,-1.2015 2.5,-1.2015 3,-1.8502 3,-1.8501 4,-2.3051 4,-2.305 3,-1.5083 3,-1.5083 0.5,-0.6593 0.5,-0.6593 6.5,-3.5167 6.5,-3.5168 3.5,-2.1046 3.5,-2.1046 7.5,-4.2317 7.5,-4.2318 0.33333,-0.8159 0.33334,-0.816 H 444 h 1.83333 l 0.33334,-0.816 0.33333,-0.8159 7.5,-4.2318 7.5,-4.2317 3.5,-2.0976 3.5,-2.0976 5.5,-2.9771 5.5,-2.9771 2.5,-1.6103 2.5,-1.6103 2,-1.1105 2,-1.1106 3.75,-2.1567 3.75,-2.1568 3.75,-2.1417 3.75,-2.1417 3,-1.8341 3,-1.8342 5,-2.7374 5,-2.7373 2,-1.2601 2,-1.26 3.29402,-1.5586 3.29402,-1.5585 0.97027,0.5996 0.97027,0.5997 1.99618,3.6821 1.99619,3.6822 1.19945,2 1.19945,2 1.79008,2.7095 1.79007,2.7095 v 1.5405 1.5405 h 0.80073 0.80074 l 2.2214,4.25 2.2214,4.25 2.38411,4 2.38411,4 1.4304,2.5 1.43039,2.5 2.32012,4 2.32011,4 1.11056,2 1.11055,2 1.84264,2.7423 1.84264,2.7423 -0.51812,1.3502 -0.51812,1.3502 -3.34183,1.7395 -3.34183,1.7396 -4,2.3958 -4,2.3958 -4.25,2.2214 -4.25,2.2214 v 0.8008 0.8007 h -1.94098 -1.94099 l -0.68109,1.102 -0.68109,1.1021 -3.12793,1.4353 -3.12792,1.4353 -4.5,2.9253 -4.5,2.9253 -3.12792,1.4353 -3.12793,1.4353 -0.68109,1.1021 -0.68109,1.102 H 511.94098 510 v 0.8007 0.8008 l -4.25,2.2214 -4.25,2.2214 -4,2.4264 -4,2.4264 -2,1.0326 -2,1.0325 -5,3.0493 -5,3.0494 -2.75,1.0674 -2.75,1.0674 v 0.8043 0.8043 l -2.75,1.0674 -2.75,1.0674 -5,3.0494 -5,3.0493 -2,1.0325 -2,1.0326 -4,2.4264 -4,2.4264 -4.25,2.2214 -4.25,2.2214 v 0.8008 0.8007 h -1.94098 -1.94099 l -0.58288,0.9431 -0.58289,0.9432 -7.58947,4.3068 -7.58947,4.3069 -3.35992,2 -3.35991,2 -6.27675,3.3685 -6.27674,3.3684 -1.57874,1.3816 -1.57874,1.3815 h -1.0364 -1.0364 l -2.38486,1.8624 -2.38486,1.8625 -2.23289,0.6995 -2.2329,0.6995 z m 1238.60396,-5.4959 -0.9218,-0.8776 -3.75,-2.0943 -3.75,-2.0942 -3.75,-2.1568 -3.75,-2.1567 -2,-1.1106 -2,-1.1105 -2.5,-1.6103 -2.5,-1.6103 -5.5,-2.9771 -5.5,-2.9771 -3.5,-2.0976 -3.5,-2.0976 -7.5,-4.2317 -7.5,-4.2318 -0.3333,-0.8159 -0.3334,-0.816 H 1560 h -1.8333 l -0.3334,-0.816 -0.3333,-0.8159 -7.5,-4.2318 -7.5,-4.2317 -3.5,-2.1046 -3.5,-2.1046 -6.5,-3.5168 -6.5,-3.5167 -0.5,-0.6593 -0.5,-0.6593 -3,-1.5083 -3,-1.5083 -4,-2.3267 -4,-2.3267 -2.5,-1.4304 -2.5,-1.4304 -4,-2.3704 -4,-2.3705 -5,-2.749 -5,-2.749 -2,-1.2601 -2,-1.26 -3,-1.5641 -3,-1.5641 -4.5,-2.9253 -4.5,-2.9253 -3.1279,-1.4353 -3.1279,-1.4353 -0.6811,-1.1021 -0.6811,-1.102 h -1.941 -1.941 v -0.8007 -0.8008 l -4.6646,-2.4492 -4.6645,-2.4493 -2.9875,-1.597 -2.9876,-1.597 1.048,-0.6477 1.048,-0.6476 3.2225,-6.2554 3.2226,-6.2553 1.1316,-1.5 1.1315,-1.5 1.344,-2.387 1.3441,-2.387 2.0693,-3.613 2.0693,-3.613 1.4304,-2.5 1.4304,-2.5 2.3841,-4 2.3841,-4 2.2214,-4.25 2.2214,-4.25 h 0.8008 0.8007 v -1.5923 -1.5922 l 2,-2.5426 2,-2.5426 v -1.3061 -1.3062 l 0.8662,-0.5353 0.8661,-0.5353 5.3839,3.0255 5.3838,3.0254 4,2.4682 4,2.4681 2,0.9654 2,0.9654 4,2.511 4,2.511 2.5,1.1997 2.5,1.1996 1.5,1.1882 1.5,1.1882 6.2767,3.3684 6.2768,3.3685 3.3599,2 3.3599,2 7.5895,4.3069 7.5895,4.3068 0.5828,0.9432 0.5829,0.9431 h 1.8577 1.8576 l 0.3334,0.816 0.3333,0.8159 7.5,4.2318 7.5,4.2317 3,1.8096 3,1.8096 4.5,2.6729 4.5,2.6728 2.75,1.0677 2.75,1.0677 v 0.8043 0.8043 l 2.75,1.0674 2.75,1.0674 5,3.0494 5,3.0493 2,1.0325 2,1.0326 4,2.4264 4,2.4264 4.25,2.2214 4.25,2.2214 v 0.8008 0.8007 h 1.941 1.941 l 0.6811,1.102 0.6811,1.1021 3.1279,1.4353 3.1279,1.4353 4.5,2.9253 4.5,2.9253 3.1279,1.4353 3.1279,1.4353 0.6811,1.1021 0.6811,1.102 h 1.941 1.941 v 0.9286 0.9285 l -1.3095,1.3215 -1.3095,1.3214 -1.5271,3 -1.5272,3 -2.3267,4 -2.3267,4 -1.4304,2.5 -1.4304,2.5 -2.3841,4 -2.3841,4 -2.2214,4.25 -2.2214,4.25 H 1634.8007 1634 v 1.941 1.941 l -0.9431,0.5829 -0.9432,0.5828 -4.3068,7.5644 -4.3069,7.5643 -1.0782,1.8836 -1.0781,1.8837 z M 1239.75,1255.9209 1234,1251.8418 V 1250.9209 1250 h -1.0051 -1.0051 l -15.2449,-12.1063 -15.2449,-12.1064 -2.2576,-1.8936 -2.2576,-1.8937 h -0.9572 -0.9572 l -1.0704,-2 -1.0704,-2 H 1191.4648 1190 v -0.8031 -0.8032 l -6,-4.2313 -6,-4.2313 V 1206.9655 1206 h -1.0607 -1.0607 l -9.8786,-8 -9.8786,-8 H 1155.0607 1154 v -0.9655 -0.9656 l -6,-4.2313 -6,-4.2313 V 1178.8031 1178 h -1.4648 -1.4648 l -1.0704,-2 -1.0704,-2 h -1.0084 -1.0085 l -2.6961,-2.5 -2.6962,-2.5 H 857.76022 586 v -45.5 -45.5 h -42 -42 v -77 -77 h 42 42 v -42 -42 h 60.5 60.5 v -1.00661 -1.00662 l -2.25,-1.89575 -2.25,-1.89575 L 689,823.62642 675.5,813.05757 673.91611,811.52878 672.33222,810 H 671.66611 671 l -1.92268,-1.92268 -1.92268,-1.92268 1.42268,-0.54594 L 670,805.06277 V 803.53138 802 h 0.80314 0.80314 l 4.23132,-6 4.23131,-6 H 681.03446 682 v -1.00511 -1.00511 l 11.75,-14.76984 11.75,-14.76983 2.5,-3.31143 2.5,-3.31142 1.32143,-1.41363 L 713.14286,749 h 1.2115 1.21151 l 2.46706,1.94222 2.46707,1.94222 11.08196,8.80778 11.08196,8.80778 2.81227,2 2.81228,2 1.578,1.75 1.57801,1.75 H 752.72224 754 v 0.82666 0.82665 l 6,4.34669 6,4.34669 V 789.17334 790 h 1.16611 1.16611 l 1.58389,1.52878 1.58389,1.52879 13.5,10.59145 13.5,10.59145 2.8708,2.12976 2.8708,2.12977 1.60144,1.75 1.60144,1.75 H 808.72224 810 v 0.85511 0.85511 l 6,4.20876 6,4.20876 V 833.06387 834 h 1.45031 1.45031 l 0.79969,1.27401 0.79969,1.274 2.71482,1.726 L 831.92963,840 H 1099.9648 1368 v 164.4919 164.492 l -58.2483,0.258 -58.2482,0.2581 10.1875,8.25 10.1876,8.25 h 1.0607 1.0607 v 0.9655 0.9656 l 6,4.2313 6,4.2313 v 0.8032 0.8031 h 1.4648 1.4648 l 1.0815,2.0207 1.0814,2.0206 -0.7441,1.2294 -0.7442,1.2293 -5.0464,6.5 -5.0465,6.5 -1.0056,1.3204 -1.0057,1.3203 -1.75,1.6519 -1.75,1.6519 v 1.2777 1.2778 h -0.8551 -0.8551 l -4.2088,6 -4.2087,6 H 1262.9361 1262 v 1.1661 1.1661 l -1.506,1.5839 -1.5059,1.5839 -6.5339,8.25 -6.5338,8.25 h -0.2102 -0.2102 z m -208.915,-162.9175 -2.335,-1.9965 -13.5,-10.6011 -13.5,-10.6011 -2.25761,-1.9023 -2.2576,-1.9024 h -0.95721 -0.95721 L 994,1064 l -1.07037,-2 H 991.46482 990 v -0.8031 -0.8032 l -6,-4.2313 -6,-4.2313 V 1050.9655 1050 h -1.00511 -1.00511 l -15.24489,-12.1063 -15.24489,-12.1064 -2.25761,-1.8936 -2.2576,-1.8937 h -0.95721 -0.95721 L 938,1020 l -1.07037,-2 h -0.95721 -0.95721 l -2.2576,-1.8937 L 930.5,1014.2127 915.25511,1002.1063 900.01022,990 H 899.00511 898 v -0.96554 -0.96555 l -6,-4.23131 -6,-4.23132 V 978.80314 978 h -1.46482 -1.46481 L 882,976 l -1.07037,-2 h -0.95721 -0.95721 l -2.2576,-1.90236 L 874.5,970.19527 861,959.62642 847.5,949.05757 845.91611,947.52878 844.33222,946 H 843.16611 842 v -0.93613 -0.93613 l -6,-4.20876 -6,-4.20876 V 934.85511 934 h -1.27776 -1.27776 l -1.60144,-1.75 -1.60144,-1.75 -2.8708,-2.13344 -2.8708,-2.13344 -7.73486,-6.11656 L 803.03029,914 H 731.01514 659 v 90.5 90.5 H 846.08495 1033.1699 Z M 1295,1004.5 V 914 H 1111.5 928 v 0.41028 0.41027 l 7.33398,5.83973 7.33397,5.83972 2.81026,2 2.81026,2 1.578,1.75 1.57801,1.75 H 952.72224 954 v 0.82666 0.82665 l 6,4.34669 6,4.34669 V 945.17334 946 h 1.27776 1.27776 l 1.57801,1.75 1.578,1.75 2.81228,2 2.81227,2 L 988,962 l 10.66392,8.5 2.81228,2 2.8123,2 1.578,1.75 1.578,1.75 h 1.2777 1.2778 v 0.85511 0.85511 l 6,4.20876 6,4.20876 V 989.06387 990 h 1.1661 1.1661 l 1.5839,1.52878 1.5839,1.52879 13.5,10.59143 13.5,10.5915 2.8708,2.1297 2.8708,2.1298 1.6014,1.75 1.6015,1.75 h 1.2777 1.2778 v 0.8551 0.8551 l 6,4.2088 6,4.2087 v 0.9362 0.9361 h 1.0051 1.0051 l 15.2449,12.1063 15.2449,12.1064 2.2576,1.8936 2.2576,1.8937 h 0.9572 0.9572 l 1.0704,2 1.0704,2 h 1.4648 1.4648 v 0.8031 0.8032 l 6,4.2313 6,4.2313 v 0.9656 0.9655 h 1.0607 1.0607 l 9.6893,7.8387 9.6893,7.8387 1.5,0.5823 1.5,0.5824 68.25,0.079 68.25,0.079 z m -712,-4 V 978 h -13 -13 v 22.5 22.5 h 13 13 z M 213.66667,1051.3333 213,1050.6667 V 1014.8333 979 H 318.5 424 v 36.5 36.5 H 319.16667 214.33333 Z M 1576,1015.5046 V 979 h 105.5125 105.5124 l -0.2624,36.25 -0.2625,36.25 -105.25,0.2546 -105.25,0.2546 z M 490,845.19927 v -0.80074 l -4.25,-2.2214 -4.25,-2.2214 -4,-2.42642 -4,-2.42642 -2,-1.03256 -2,-1.03256 -5,-3.04932 -5,-3.04932 -2.75,-1.06739 -2.75,-1.06739 V 824 823.19565 l -2.75,-1.06739 -2.75,-1.06739 -5,-3.04932 -5,-3.04932 -2,-1.03256 -2,-1.03256 -4,-2.42642 -4,-2.42642 -4.25,-2.2214 -4.25,-2.2214 V 802.80073 802 h -1.94098 -1.94099 l -0.68109,-1.10203 -0.68109,-1.10204 -3.12793,-1.43534 L 406.5,796.92525 402,794 l -4.5,-2.92525 -3.12792,-1.43534 -3.12793,-1.43534 -0.68109,-1.10204 L 389.88197,786 H 387.94098 386 v -0.80073 -0.80074 l -4.25,-2.2214 -4.25,-2.2214 -4,-2.38411 -4,-2.38411 -2.5,-1.4304 -2.5,-1.43039 -4,-2.32672 -4,-2.32672 -3,-1.50831 -3,-1.5083 -0.5,-0.65926 -0.5,-0.65926 -6.5,-3.51679 -6.5,-3.51679 -3.5,-2.10457 -3.5,-2.10457 -7.5,-4.23175 -7.5,-4.23175 -0.33333,-0.81597 L 313.83333,742 h -1.44585 -1.44585 l 2.52032,-4.25 2.52031,-4.25 1.20223,-2.5 1.20223,-2.5 1.18819,-1.5 1.18818,-1.5 3.36845,-6.27674 3.36846,-6.27675 2,-3.35991 2,-3.35992 4.30687,-7.58947 4.30687,-7.58947 0.94313,-0.58289 L 342,689.88197 V 687.94098 686 h 0.81479 0.81479 l 1.66903,-3.5 1.66903,-3.5 h 0.95716 0.95717 l 0.62739,1.01515 0.6274,1.01515 3.18162,1.5116 3.18162,1.51161 2,1.26004 2,1.26004 5,2.74903 5,2.74903 4,2.37042 4,2.37042 2.5,1.4304 2.5,1.43039 4,2.32672 4,2.32672 3,1.50831 3,1.5083 0.5,0.65926 0.5,0.65926 6.5,3.51679 6.5,3.51679 3.5,2.10457 3.5,2.10457 7.5,4.23175 7.5,4.23175 0.33333,0.81597 L 434.16667,730 H 436 h 1.83333 l 0.33334,0.81596 0.33333,0.81597 7.5,4.23175 7.5,4.23175 3.5,2.10457 3.5,2.10457 6.5,3.51679 6.5,3.51679 0.5,0.65926 0.5,0.65926 3,1.5083 3,1.50831 4,2.30504 4,2.30504 3,1.85018 3,1.85018 2.5,1.2015 2.5,1.2015 1.5,1.18819 1.5,1.18818 6.27674,3.36845 6.27675,3.36846 3.72325,2.2289 3.72326,2.2289 3.25,1.70631 3.25,1.70631 v 1.25578 1.25577 l -1.01515,0.62739 -1.01515,0.6274 -1.4803,3.18162 -1.48029,3.18162 -1.86287,3 -1.86288,3 -2.30504,4 -2.30504,4 -1.50831,3 -1.5083,3 -0.65926,0.5 -0.65926,0.5 -3.51679,6.5 -3.51679,6.5 -2.10558,3.5 -2.10557,3.5 -3.27754,5.75 -3.27753,5.75 H 491.76918 490 Z m 1031.9925,-1.44927 -0.9579,-2.25 -2.4715,-4 -2.4715,-4 -4.2298,-7.5 -4.2299,-7.5 -0.8159,-0.33333 -0.816,-0.33334 v -1.85765 -1.85765 l -1.102,-0.68109 -1.1021,-0.68109 -1.4353,-3.12793 L 1500.9253,806.5 1498,802 l -2.9253,-4.5 -1.4353,-3.12792 -1.4353,-3.12793 -1.1021,-0.68109 -1.102,-0.68109 V 787.94098 786 h -1 -1 v -1.31479 -1.31479 l 3.25,-1.70631 3.25,-1.70631 4,-2.42745 4,-2.42746 2,-1.03256 2,-1.03256 5,-3.04932 5,-3.04932 2.75,-1.06739 2.75,-1.06739 V 764 763.19565 l 2.75,-1.06769 2.75,-1.06769 4.5,-2.67282 4.5,-2.67282 3,-1.8096 3,-1.8096 7.5,-4.23175 7.5,-4.23175 0.3333,-0.81597 0.3334,-0.81596 h 1.8576 1.8577 l 0.5829,-0.94313 0.5828,-0.94313 7.5895,-4.30687 7.5895,-4.30687 3.3599,-2 3.3599,-2 6.2768,-3.36846 6.2767,-3.36845 1.5,-1.18818 1.5,-1.18819 2.5,-1.2015 2.5,-1.2015 3,-1.85018 3,-1.85018 4,-2.29844 4,-2.29843 2,-1.11056 2,-1.11055 2.5,-1.61027 2.5,-1.61027 5.5,-2.97714 5.5,-2.97713 3.5,-2.09757 3.5,-2.09757 7.5,-4.23175 7.5,-4.23175 0.3333,-0.81597 0.3334,-0.81596 h 1.9166 1.9167 v -0.89301 -0.89301 l 1.6271,-0.62436 1.627,-0.62436 1.359,1.76737 1.359,1.76737 1.7064,3.75 1.7064,3.75 h 0.7097 0.7097 l 1.0674,2.75 1.0674,2.75 3.0494,5 3.0493,5 1.0325,2 1.0326,2 2.4264,4 2.4264,4 2.2214,4.25 2.2214,4.25 h 0.8008 0.8007 v 1.87756 1.87755 l 1.4613,1.21275 1.4612,1.21275 0.6763,2.1597 0.6763,2.15969 1.9192,2.45695 1.9191,2.45695 -1.8067,0.80996 -1.8067,0.80997 -4.5,2.94571 -4.5,2.94571 -3.1279,1.43534 -3.1279,1.43534 -0.6811,1.10204 L 1685.882,754 h -1.941 -1.941 v 0.80073 0.80074 l -4.25,2.2214 -4.25,2.2214 -4,2.42642 -4,2.42642 -2,1.03256 -2,1.03256 -5,3.04932 -5,3.04932 -2.75,1.06739 -2.75,1.06739 V 776 v 0.80435 l -2.75,1.06739 -2.75,1.06739 -5,3.04932 -5,3.04932 -2,1.03256 -2,1.03256 -4,2.42642 -4,2.42642 -4.25,2.2214 -4.25,2.2214 V 797.19927 798 h -1.941 -1.941 l -0.6811,1.10203 -0.6811,1.10204 -3.1279,1.43534 -3.1279,1.43534 -4.5,2.92525 -4.5,2.92525 -3.1279,1.43534 -3.1279,1.43534 -0.6811,1.10204 L 1581.882,814 h -1.941 -1.941 v 0.80073 0.80074 l -4.25,2.2214 -4.25,2.2214 -4,2.38411 -4,2.38411 -2.5,1.4304 -2.5,1.43039 -4,2.32672 -4,2.32672 -3,1.50831 -3,1.5083 -0.5,0.65702 -0.5,0.65702 -5.5,2.88073 -5.5,2.88074 -2.6544,1.79058 -2.6543,1.79058 h -1.1204 -1.1204 z M 695.93473,710.66436 694.04392,706.5 l -0.022,-1.06217 -0.022,-1.06217 -2,-4.13952 -2,-4.13953 v -1.14717 -1.14718 l -1.45531,-3.15113 -1.45531,-3.15113 -1.43991,-4 -1.4399,-4 L 682,674 l -2.20957,-5.5 -1.4399,-4 -1.43991,-4 -1.45531,-3.15113 L 674,654.19774 v -1.10977 -1.10977 l -1.84961,-4.2391 -1.84961,-4.2391 -2.2148,-6 -2.21479,-6 -1.9356,-4.27675 L 662,622.9465 V 621.17325 619.4 l -0.83972,-0.95 -0.83973,-0.95 -1.27673,-3.5 -1.27672,-3.5 -2.03287,-5.5 -2.03286,-5.5 -1.274,-3 -1.27401,-3 -1.57668,-4.25 L 648,585 l -1.52707,-4.25 -1.52707,-4.25 -0.94586,-2 -0.94586,-2 -1.52707,-4.25 L 640,564 l -1.52707,-4.25 -1.52707,-4.25 -0.94586,-2 -0.94586,-2 -1.6132,-4.5 -1.6132,-4.5 -1.49055,-4 -1.49055,-4 -1.25878,-3 -1.25878,-3 -1.15628,-3.45826 -1.15629,-3.45825 0.7697,-0.7697 0.7697,-0.7697 5.47205,-1.9099 5.47204,-1.90989 5.5,-2.21693 5.5,-2.21694 4,-1.4399 4,-1.43991 3.15113,-1.45531 L 661.80226,506 h 1.10977 1.10977 l 4.2391,-1.84961 4.2391,-1.84961 6,-2.22008 6,-2.22008 3.23611,-1.40751 3.23611,-1.40751 1.51389,2.92754 1.51389,2.92754 v 1.51924 1.51925 l 2,3.56083 2,3.56083 v 1.20026 1.20026 l 2.14931,5.51932 2.14932,5.51933 1.274,3 1.27401,3 1.57668,4.25 L 708,539 l 1.52707,4.25 1.52707,4.25 0.94586,2 0.94586,2 1.52707,4.25 L 716,560 l 1.52707,4.25 1.52707,4.25 0.94586,2 0.94586,2 1.52707,4.25 L 724,581 l 1.57668,4.25 1.57668,4.25 1.25878,3 1.25878,3 1.07017,3 1.07018,3 1.24552,3.5 1.24553,3.5 1.69768,4 1.69768,4 1.24404,3.5 1.24404,3.5 1.97725,5 1.97725,5 1.83634,5 1.83633,5 1.62061,4.5 1.6206,4.5 0.94586,2 0.94586,2 1.42228,4 1.42229,4 2.21694,5.5 2.21693,5.5 1.81089,5.17193 1.81088,5.17194 1.11215,2.07806 L 766.07037,690 H 764.23518 762.4 l -0.95,0.87733 -0.95,0.87732 -6,2.2216 -6,2.2216 -4,1.44576 -4,1.44577 -3.15113,1.45531 L 734.19774,702 h -1.07212 -1.07212 l -4.27675,1.89021 -4.27675,1.89021 -6,2.17948 -6,2.17948 -3.5,1.56495 -3.5,1.56495 -3.33723,0.77972 -3.33724,0.77973 z m 620.56527,3.59872 -2,-0.39948 -5.5,-2.08111 -5.5,-2.08112 -3,-1.274 -3,-1.27401 -4.25,-1.57668 L 1289,704 l -4.25,-1.54469 -4.25,-1.54469 -3.1511,-1.45531 L 1274.1977,698 h -1.0721 -1.0721 l -4.2767,-1.90865 -4.2768,-1.90864 -6.1715,-2.29286 -6.1715,-2.29286 1.4215,-2.74883 1.4215,-2.74884 v -1.14853 -1.14853 l 1.4553,-3.15113 1.4553,-3.15113 1.5447,-4.25 1.5447,-4.25 1.5767,-4.25 1.5767,-4.25 1.2587,-3 1.2588,-3 1.1646,-3.25 1.1645,-3.25 1.1512,-3.25 1.1511,-3.25 1.6977,-4 1.6977,-4 1.244,-3.5 1.2441,-3.5 1.9772,-5 1.9773,-5 1.8363,-5 1.8363,-5 1.6206,-4.5 1.6206,-4.5 0.9459,-2 0.9459,-2 1.4222,-4 1.4223,-4 2.1998,-5.5 2.1998,-5.5 2.4312,-6.5 2.4312,-6.5 1.5717,-4.5 1.5716,-4.5 0.9021,-0.95 0.9022,-0.95 v -1.77325 -1.77325 l 1.9356,-4.27675 1.9356,-4.27675 2.2148,-6 2.2148,-6 1.8496,-4.2391 1.8496,-4.2391 v -0.74158 -0.74157 l 2.1264,-5.51932 2.1264,-5.51933 1.5255,-3.75 1.5254,-3.75 h 1.7892 1.7891 l 0.618,1 0.618,1 h 1.6717 1.6716 l 5.5194,2.14931 5.5193,2.14932 3,1.274 3,1.27401 4.25,1.57668 4.25,1.57668 4.25,1.52707 4.25,1.52707 2,0.94586 2,0.94586 4.5,1.6206 4.5,1.62061 5.472,1.92851 5.4721,1.92851 0.8741,0.87414 0.8742,0.87413 -1.4469,3.35382 -1.4469,3.35382 -2.2137,6 -2.2137,6 -1.9356,4.27675 -1.9356,4.27675 v 1.44284 1.44283 l -2,3.56083 -2,3.56083 v 1.20026 1.20026 l -2.1493,5.51932 -2.1493,5.51933 -1.274,3 -1.274,3 -1.5767,4.25 -1.5767,4.25 -1.5271,4.25 -1.527,4.25 -0.9459,2 -0.9459,2 -1.527,4.25 -1.5271,4.25 -1.5271,4.25 -1.527,4.25 -0.9459,2 -0.9459,2 -1.6132,4.5 -1.6132,4.5 -1.4905,4 -1.4906,4 -1.2587,3 -1.2588,3 -1.0702,3 -1.0702,3 -1.2455,3.5 -1.2455,3.5 -1.6977,4 -1.6977,4 -1.244,3.5 -1.2441,3.5 -1.9772,5 -1.9773,5 -1.8363,5 -1.8363,5 -1.6009,4.5 -1.6009,4.5 -0.9185,1.61764 -0.9184,1.61765 -1.0538,3.91325 -1.0537,3.91326 -1.2704,1.55038 -1.2705,1.55039 z M 972.66667,662.33333 972,661.66667 V 556.83333 452 h 36.5 36.5 V 557.5 663 h -35.8333 -35.83337 z"
       id="path3" />
  </g>
</svg>
